<svg width="145" height="68" viewBox="0 0 145 68" fill="none" xmlns="http://www.w3.org/2000/svg">
<path d="M25.3641 50.315C23.2941 50.315 21.4341 49.955 19.7841 49.235C18.1641 48.485 16.8891 47.465 15.9591 46.175C15.0291 44.855 14.5491 43.34 14.5191 41.63H18.8841C19.0341 43.1 19.6341 44.345 20.6841 45.365C21.7641 46.355 23.3241 46.85 25.3641 46.85C27.3141 46.85 28.8441 46.37 29.9541 45.41C31.0941 44.42 31.6641 43.16 31.6641 41.63C31.6641 40.43 31.3341 39.455 30.6741 38.705C30.0141 37.955 29.1891 37.385 28.1991 36.995C27.2091 36.605 25.8741 36.185 24.1941 35.735C22.1241 35.195 20.4591 34.655 19.1991 34.115C17.9691 33.575 16.9041 32.735 16.0041 31.595C15.1341 30.425 14.6991 28.865 14.6991 26.915C14.6991 25.205 15.1341 23.69 16.0041 22.37C16.8741 21.05 18.0891 20.03 19.6491 19.31C21.2391 18.59 23.0541 18.23 25.0941 18.23C28.0341 18.23 30.4341 18.965 32.2941 20.435C34.1841 21.905 35.2491 23.855 35.4891 26.285H30.9891C30.8391 25.085 30.2091 24.035 29.0991 23.135C27.9891 22.205 26.5191 21.74 24.6891 21.74C22.9791 21.74 21.5841 22.19 20.5041 23.09C19.4241 23.96 18.8841 25.19 18.8841 26.78C18.8841 27.92 19.1991 28.85 19.8291 29.57C20.4891 30.29 21.2841 30.845 22.2141 31.235C23.1741 31.595 24.5091 32.015 26.2191 32.495C28.2891 33.065 29.9541 33.635 31.2141 34.205C32.4741 34.745 33.5541 35.6 34.4541 36.77C35.3541 37.91 35.8041 39.47 35.8041 41.45C35.8041 42.98 35.3991 44.42 34.5891 45.77C33.7791 47.12 32.5791 48.215 30.9891 49.055C29.3991 49.895 27.5241 50.315 25.3641 50.315ZM66.9852 55.94L60.7302 49.685C59.2002 50.105 57.6402 50.315 56.0502 50.315C53.1402 50.315 50.4852 49.64 48.0852 48.29C45.6852 46.91 43.7802 45.005 42.3702 42.575C40.9902 40.115 40.3002 37.355 40.3002 34.295C40.3002 31.235 40.9902 28.49 42.3702 26.06C43.7802 23.6 45.6852 21.695 48.0852 20.345C50.4852 18.965 53.1402 18.275 56.0502 18.275C58.9902 18.275 61.6602 18.965 64.0602 20.345C66.4602 21.695 68.3502 23.585 69.7302 26.015C71.1102 28.445 71.8002 31.205 71.8002 34.295C71.8002 37.295 71.1402 39.995 69.8202 42.395C68.5002 44.795 66.6852 46.685 64.3752 48.065L72.2952 55.94H66.9852ZM44.4852 34.295C44.4852 36.785 44.9802 38.975 45.9702 40.865C46.9902 42.755 48.3702 44.21 50.1102 45.23C51.8802 46.25 53.8602 46.76 56.0502 46.76C58.2402 46.76 60.2052 46.25 61.9452 45.23C63.7152 44.21 65.0952 42.755 66.0852 40.865C67.1052 38.975 67.6152 36.785 67.6152 34.295C67.6152 31.775 67.1052 29.585 66.0852 27.725C65.0952 25.835 63.7302 24.38 61.9902 23.36C60.2502 22.34 58.2702 21.83 56.0502 21.83C53.8302 21.83 51.8502 22.34 50.1102 23.36C48.3702 24.38 46.9902 25.835 45.9702 27.725C44.9802 29.585 44.4852 31.775 44.4852 34.295ZM95.0241 18.635V21.965H81.3891V32.54H92.4591V35.87H81.3891V50H77.2941V18.635H95.0241ZM119.275 18.635V21.965H110.725V50H106.63V21.965H98.0349V18.635H119.275Z" fill="#1E1E1E"/>
<path d="M133.856 31.505V34.16H122.291V31.82L127.196 27.86C128.186 27.05 128.936 26.285 129.446 25.565C129.986 24.815 130.256 24.005 130.256 23.135C130.256 22.325 130.031 21.695 129.581 21.245C129.161 20.795 128.606 20.57 127.916 20.57C127.196 20.57 126.626 20.78 126.206 21.2C125.816 21.59 125.576 22.145 125.486 22.865H122.201C122.261 21.455 122.801 20.3 123.821 19.4C124.841 18.5 126.236 18.05 128.006 18.05C129.716 18.05 131.081 18.53 132.101 19.49C133.151 20.45 133.676 21.62 133.676 23C133.676 24.14 133.346 25.16 132.686 26.06C132.026 26.93 130.961 27.905 129.491 28.985L125.936 31.505H133.856Z" fill="#09D75C"/>
<path d="M3.5 62.0459C3.5 62.322 3.72386 62.5459 4 62.5459C4.27614 62.5459 4.5 62.322 4.5 62.0459H3.5ZM4.35355 4.41962C4.15829 4.22435 3.84171 4.22435 3.64645 4.41962L0.464466 7.6016C0.269204 7.79686 0.269204 8.11344 0.464466 8.3087C0.659728 8.50397 0.976311 8.50397 1.17157 8.3087L4 5.48028L6.82843 8.3087C7.02369 8.50397 7.34027 8.50397 7.53553 8.3087C7.7308 8.11344 7.7308 7.79686 7.53553 7.6016L4.35355 4.41962ZM4.5 62.0459L4.5 4.77317H3.5L3.5 62.0459H4.5Z" fill="#1E1E1E"/>
<path d="M4 61.5459C3.72386 61.5459 3.5 61.7698 3.5 62.0459C3.5 62.322 3.72386 62.5459 4 62.5459V61.5459ZM144.354 62.3995C144.549 62.2042 144.549 61.8876 144.354 61.6923L141.172 58.5104C140.976 58.3151 140.66 58.3151 140.464 58.5104C140.269 58.7056 140.269 59.0222 140.464 59.2175L143.293 62.0459L140.464 64.8743C140.269 65.0696 140.269 65.3862 140.464 65.5814C140.66 65.7767 140.976 65.7767 141.172 65.5814L144.354 62.3995ZM4 62.5459H144V61.5459H4V62.5459Z" fill="#1E1E1E"/>
</svg>
