<svg width="93" height="45" viewBox="0 0 93 45" fill="none" xmlns="http://www.w3.org/2000/svg">
<path d="M17.94 33.21C16.56 33.21 15.32 32.97 14.22 32.49C13.14 31.99 12.29 31.31 11.67 30.45C11.05 29.57 10.73 28.56 10.71 27.42H13.62C13.72 28.4 14.12 29.23 14.82 29.91C15.54 30.57 16.58 30.9 17.94 30.9C19.24 30.9 20.26 30.58 21 29.94C21.76 29.28 22.14 28.44 22.14 27.42C22.14 26.62 21.92 25.97 21.48 25.47C21.04 24.97 20.49 24.59 19.83 24.33C19.17 24.07 18.28 23.79 17.16 23.49C15.78 23.13 14.67 22.77 13.83 22.41C13.01 22.05 12.3 21.49 11.7 20.73C11.12 19.95 10.83 18.91 10.83 17.61C10.83 16.47 11.12 15.46 11.7 14.58C12.28 13.7 13.09 13.02 14.13 12.54C15.19 12.06 16.4 11.82 17.76 11.82C19.72 11.82 21.32 12.31 22.56 13.29C23.82 14.27 24.53 15.57 24.69 17.19H21.69C21.59 16.39 21.17 15.69 20.43 15.09C19.69 14.47 18.71 14.16 17.49 14.16C16.35 14.16 15.42 14.46 14.7 15.06C13.98 15.64 13.62 16.46 13.62 17.52C13.62 18.28 13.83 18.9 14.25 19.38C14.69 19.86 15.22 20.23 15.84 20.49C16.48 20.73 17.37 21.01 18.51 21.33C19.89 21.71 21 22.09 21.84 22.47C22.68 22.83 23.4 23.4 24 24.18C24.6 24.94 24.9 25.98 24.9 27.3C24.9 28.32 24.63 29.28 24.09 30.18C23.55 31.08 22.75 31.81 21.69 32.37C20.63 32.93 19.38 33.21 17.94 33.21ZM45.6874 36.96L41.5174 32.79C40.4974 33.07 39.4574 33.21 38.3974 33.21C36.4574 33.21 34.6874 32.76 33.0874 31.86C31.4874 30.94 30.2174 29.67 29.2774 28.05C28.3574 26.41 27.8974 24.57 27.8974 22.53C27.8974 20.49 28.3574 18.66 29.2774 17.04C30.2174 15.4 31.4874 14.13 33.0874 13.23C34.6874 12.31 36.4574 11.85 38.3974 11.85C40.3574 11.85 42.1374 12.31 43.7374 13.23C45.3374 14.13 46.5974 15.39 47.5174 17.01C48.4374 18.63 48.8974 20.47 48.8974 22.53C48.8974 24.53 48.4574 26.33 47.5774 27.93C46.6974 29.53 45.4874 30.79 43.9474 31.71L49.2274 36.96H45.6874ZM30.6874 22.53C30.6874 24.19 31.0174 25.65 31.6774 26.91C32.3574 28.17 33.2774 29.14 34.4374 29.82C35.6174 30.5 36.9374 30.84 38.3974 30.84C39.8574 30.84 41.1674 30.5 42.3274 29.82C43.5074 29.14 44.4274 28.17 45.0874 26.91C45.7674 25.65 46.1074 24.19 46.1074 22.53C46.1074 20.85 45.7674 19.39 45.0874 18.15C44.4274 16.89 43.5174 15.92 42.3574 15.24C41.1974 14.56 39.8774 14.22 38.3974 14.22C36.9174 14.22 35.5974 14.56 34.4374 15.24C33.2774 15.92 32.3574 16.89 31.6774 18.15C31.0174 19.39 30.6874 20.85 30.6874 22.53ZM64.38 12.09V14.31H55.29V21.36H62.67V23.58H55.29V33H52.56V12.09H64.38ZM80.5472 12.09V14.31H74.8472V33H72.1172V14.31H66.3872V12.09H80.5472Z" fill="white"/>
<path d="M90.2677 20.67V22.44H82.5577V20.88L85.8277 18.24C86.4877 17.7 86.9877 17.19 87.3277 16.71C87.6877 16.21 87.8677 15.67 87.8677 15.09C87.8677 14.55 87.7177 14.13 87.4177 13.83C87.1377 13.53 86.7677 13.38 86.3077 13.38C85.8277 13.38 85.4477 13.52 85.1677 13.8C84.9077 14.06 84.7477 14.43 84.6877 14.91H82.4977C82.5377 13.97 82.8977 13.2 83.5777 12.6C84.2577 12 85.1877 11.7 86.3677 11.7C87.5077 11.7 88.4177 12.02 89.0977 12.66C89.7977 13.3 90.1477 14.08 90.1477 15C90.1477 15.76 89.9277 16.44 89.4877 17.04C89.0477 17.62 88.3377 18.27 87.3577 18.99L84.9877 20.67H90.2677Z" fill="#09D75C"/>
<path d="M3.5 39C3.5 39.2761 3.72386 39.5 4 39.5C4.27614 39.5 4.5 39.2761 4.5 39H3.5ZM4.35355 2.64645C4.15829 2.45118 3.84171 2.45118 3.64645 2.64645L0.464466 5.82843C0.269204 6.02369 0.269204 6.34027 0.464466 6.53553C0.659728 6.7308 0.976311 6.7308 1.17157 6.53553L4 3.70711L6.82843 6.53553C7.02369 6.7308 7.34027 6.7308 7.53553 6.53553C7.7308 6.34027 7.7308 6.02369 7.53553 5.82843L4.35355 2.64645ZM4.5 39L4.5 3H3.5L3.5 39H4.5Z" fill="white"/>
<path d="M4 38.5C3.72386 38.5 3.5 38.7239 3.5 39C3.5 39.2761 3.72386 39.5 4 39.5V38.5ZM92.3536 39.3536C92.5488 39.1583 92.5488 38.8417 92.3536 38.6464L89.1716 35.4645C88.9763 35.2692 88.6597 35.2692 88.4645 35.4645C88.2692 35.6597 88.2692 35.9763 88.4645 36.1716L91.2929 39L88.4645 41.8284C88.2692 42.0237 88.2692 42.3403 88.4645 42.5355C88.6597 42.7308 88.9763 42.7308 89.1716 42.5355L92.3536 39.3536ZM4 39.5H92V38.5H4V39.5Z" fill="white"/>
</svg>
